<svg width="236" height="40" viewBox="0 0 236 40" fill="none" xmlns="http://www.w3.org/2000/svg">
<path d="M17.3365 2.22516C22.0807 2.15733 26.7573 3.14402 30.3092 6.20368C31.8776 7.5548 33.0359 9.14312 33.8541 10.8795C35.6064 10.7749 37.4031 11.2817 38.8932 12.442L38.8951 12.4439C42.567 15.3057 44.376 19.2635 44.442 23.8209C44.4857 26.8382 43.9534 29.8039 42.5865 32.4097C41.8994 33.5799 41.0316 34.6694 39.9596 35.648C36.4977 38.808 31.8522 39.9288 27.108 39.9966C22.364 40.0645 17.6882 39.0775 14.1363 36.0181C12.5678 34.667 11.4086 33.0787 10.5904 31.3424C8.83831 31.4469 7.04227 30.9398 5.55233 29.7799L5.55038 29.7779C1.8783 26.9161 0.0685227 22.9584 0.0025282 18.4009C-0.041158 15.3836 0.492103 12.417 1.85897 9.8111C2.5461 8.64104 3.41291 7.55137 4.48495 6.57282C7.94678 3.41297 12.5924 2.29302 17.3365 2.22516ZM19.649 16.9605C19.1101 16.2854 18.1283 16.1786 17.4586 16.7193C15.2284 18.5149 14.1442 20.8796 14.1441 23.9488C14.1441 31.3677 18.3457 35.1295 26.6334 35.1295C34.9209 35.1293 39.1217 31.3676 39.1217 23.9488C39.1216 20.889 38.0372 18.5263 35.8101 16.7213V16.7222C35.1404 16.1785 34.1602 16.2862 33.6197 16.9566C33.0793 17.6286 33.186 18.6131 33.8541 19.1539C35.343 20.3588 36.0064 21.8376 36.0064 23.9488C36.0064 27.9309 34.8927 32.0043 26.6334 32.0045C18.3737 32.0045 17.2594 27.9325 17.2594 23.9488C17.2594 21.833 17.9232 20.3548 19.4088 19.1578C20.08 18.6187 20.1876 17.6341 19.649 16.9605ZM17.3424 6.9986C9.05464 6.9986 4.85507 10.7604 4.85507 18.1793C4.85511 21.2391 5.93954 23.6018 8.16659 25.4068C8.83634 25.9491 9.81655 25.8445 10.357 25.1724C10.8971 24.5004 10.7907 23.5148 10.1226 22.9742C8.63372 21.7693 7.97034 20.2906 7.9703 18.1793C7.9703 14.1972 9.08405 10.1247 17.3433 10.1246C25.603 10.1246 26.7174 14.1955 26.7174 18.1793C26.7173 20.2953 26.0538 21.7741 24.568 22.9713C23.8967 23.5105 23.7888 24.495 24.3277 25.1685C24.6345 25.5528 25.0879 25.7525 25.5426 25.7525C25.8852 25.7525 26.2296 25.6401 26.5162 25.4088C28.7465 23.6131 29.8306 21.2486 29.8307 18.1793C29.8307 10.7604 25.63 6.99865 17.3424 6.9986Z" fill="#2C46B1"/>
<path d="M68.3068 31.3111C66.5438 31.3111 65.009 30.9481 63.7023 30.2222C62.4164 29.4756 61.4208 28.4696 60.7156 27.2044C60.0312 25.9392 59.689 24.5081 59.689 22.9111C59.689 21.0444 60.0623 19.4577 60.809 18.1511C61.5764 16.8237 62.5719 15.8074 63.7956 15.1022C65.0194 14.397 66.3157 14.0444 67.6846 14.0444C68.7423 14.0444 69.7379 14.2622 70.6712 14.6977C71.6253 15.1333 72.4653 15.7348 73.1912 16.5022C73.9172 17.2488 74.4875 18.12 74.9024 19.1155C75.3379 20.1111 75.5557 21.1689 75.5557 22.2889C75.5349 22.7866 75.3379 23.1911 74.9646 23.5022C74.5912 23.8133 74.1557 23.9689 73.6579 23.9689H61.7734L60.8401 20.8577H72.2579L71.5735 21.48V20.64C71.532 20.0385 71.3142 19.4992 70.9201 19.0222C70.5468 18.5451 70.0697 18.1718 69.489 17.9022C68.929 17.6118 68.3275 17.4666 67.6846 17.4666C67.0623 17.4666 66.4816 17.5496 65.9423 17.7155C65.4031 17.8814 64.9364 18.1614 64.5423 18.5555C64.1482 18.9496 63.8371 19.4785 63.609 20.1422C63.3808 20.8059 63.2668 21.6459 63.2668 22.6622C63.2668 23.7822 63.4949 24.7363 63.9512 25.5244C64.4282 26.2918 65.0297 26.8829 65.7557 27.2978C66.5023 27.6918 67.2905 27.8889 68.1201 27.8889C68.8875 27.8889 69.4994 27.8267 69.9557 27.7022C70.412 27.5778 70.7749 27.4326 71.0446 27.2667C71.3349 27.08 71.5942 26.9244 71.8223 26.8C72.1957 26.6133 72.5483 26.52 72.8801 26.52C73.3364 26.52 73.7098 26.6755 74.0001 26.9867C74.3112 27.2978 74.4668 27.6607 74.4668 28.0755C74.4668 28.6355 74.1764 29.1437 73.5957 29.6C73.0564 30.0563 72.2994 30.4607 71.3246 30.8133C70.3497 31.1452 69.3438 31.3111 68.3068 31.3111ZM87.7153 14.0444C89.2501 14.0444 90.4116 14.3659 91.1998 15.0088C92.0087 15.6518 92.5583 16.5125 92.8487 17.5911C93.1598 18.6488 93.3153 19.8311 93.3153 21.1377V29.1022C93.3153 29.6415 93.139 30.0978 92.7864 30.4711C92.4338 30.8237 91.9879 31 91.4487 31C90.9094 31 90.4635 30.8237 90.1109 30.4711C89.7583 30.0978 89.582 29.6415 89.582 29.1022V21.1377C89.582 20.4533 89.4887 19.8414 89.302 19.3022C89.1361 18.7422 88.8249 18.2963 88.3686 17.9644C87.9124 17.6325 87.259 17.4666 86.4086 17.4666C85.579 17.4666 84.8738 17.6325 84.2931 17.9644C83.7331 18.2963 83.2975 18.7422 82.9864 19.3022C82.696 19.8414 82.5509 20.4533 82.5509 21.1377V29.1022C82.5509 29.6415 82.3746 30.0978 82.022 30.4711C81.6694 30.8237 81.2234 31 80.6842 31C80.1449 31 79.699 30.8237 79.3464 30.4711C78.9938 30.0978 78.8175 29.6415 78.8175 29.1022V16.2533C78.8175 15.714 78.9938 15.2681 79.3464 14.9155C79.699 14.5422 80.1449 14.3555 80.6842 14.3555C81.2234 14.3555 81.6694 14.5422 82.022 14.9155C82.3746 15.2681 82.5509 15.714 82.5509 16.2533V17.5911L82.0842 17.4977C82.2709 17.1451 82.5405 16.7718 82.8931 16.3777C83.2457 15.9629 83.6605 15.5792 84.1375 15.2266C84.6146 14.874 85.1538 14.594 85.7553 14.3866C86.3568 14.1585 87.0101 14.0444 87.7153 14.0444ZM104.755 14.0444C105.937 14.0444 106.964 14.1688 107.835 14.4177C108.727 14.6666 109.411 15.0192 109.888 15.4755C110.386 15.9111 110.635 16.4399 110.635 17.0622C110.635 17.477 110.511 17.8711 110.262 18.2444C110.013 18.597 109.65 18.7733 109.173 18.7733C108.841 18.7733 108.561 18.7318 108.333 18.6488C108.125 18.5451 107.939 18.4207 107.773 18.2755C107.607 18.1303 107.41 17.9955 107.182 17.8711C106.974 17.7466 106.653 17.6533 106.217 17.5911C105.802 17.5081 105.491 17.4666 105.284 17.4666C104.226 17.4666 103.324 17.6948 102.577 18.1511C101.851 18.6074 101.291 19.2296 100.897 20.0177C100.503 20.7851 100.306 21.677 100.306 22.6933C100.306 23.6889 100.503 24.5807 100.897 25.3689C101.312 26.1363 101.872 26.7481 102.577 27.2044C103.303 27.6607 104.133 27.8889 105.066 27.8889C105.585 27.8889 106.031 27.8578 106.404 27.7955C106.777 27.7333 107.088 27.64 107.337 27.5155C107.628 27.3496 107.887 27.1733 108.115 26.9867C108.343 26.8 108.685 26.7067 109.142 26.7067C109.681 26.7067 110.096 26.8829 110.386 27.2355C110.677 27.5674 110.822 27.9822 110.822 28.48C110.822 28.9985 110.531 29.4756 109.951 29.9111C109.37 30.3259 108.602 30.6681 107.648 30.9378C106.715 31.1867 105.699 31.3111 104.599 31.3111C102.961 31.3111 101.54 30.9378 100.337 30.1911C99.1343 29.4237 98.2009 28.3867 97.5372 27.08C96.8943 25.7733 96.5728 24.3111 96.5728 22.6933C96.5728 20.9926 96.915 19.4992 97.5994 18.2133C98.3046 16.9066 99.2691 15.8903 100.493 15.1644C101.737 14.4177 103.158 14.0444 104.755 14.0444ZM125.865 14.3555C126.404 14.3555 126.85 14.5422 127.203 14.9155C127.555 15.2681 127.732 15.714 127.732 16.2533V24.1555C127.732 26.3541 127.12 28.0963 125.896 29.3822C124.672 30.6681 122.909 31.3111 120.607 31.3111C118.305 31.3111 116.542 30.6681 115.318 29.3822C114.115 28.0963 113.514 26.3541 113.514 24.1555V16.2533C113.514 15.714 113.69 15.2681 114.043 14.9155C114.395 14.5422 114.841 14.3555 115.38 14.3555C115.92 14.3555 116.366 14.5422 116.718 14.9155C117.071 15.2681 117.247 15.714 117.247 16.2533V24.1555C117.247 25.4207 117.527 26.3644 118.087 26.9867C118.647 27.5881 119.487 27.8889 120.607 27.8889C121.748 27.8889 122.598 27.5881 123.158 26.9867C123.718 26.3644 123.998 25.4207 123.998 24.1555V16.2533C123.998 15.714 124.175 15.2681 124.527 14.9155C124.88 14.5422 125.326 14.3555 125.865 14.3555ZM133.64 31C133.101 31 132.655 30.8237 132.302 30.4711C131.95 30.0978 131.773 29.6415 131.773 29.1022V16.2533C131.773 15.714 131.95 15.2681 132.302 14.9155C132.655 14.5422 133.101 14.3555 133.64 14.3555C134.179 14.3555 134.625 14.5422 134.978 14.9155C135.33 15.2681 135.507 15.714 135.507 16.2533V19.1777L135.289 17.0933C135.517 16.5955 135.808 16.1599 136.16 15.7866C136.533 15.3925 136.948 15.0711 137.405 14.8222C137.861 14.5525 138.348 14.3555 138.867 14.2311C139.385 14.1066 139.904 14.0444 140.422 14.0444C141.045 14.0444 141.563 14.2207 141.978 14.5733C142.413 14.9259 142.631 15.3407 142.631 15.8177C142.631 16.5022 142.455 17 142.102 17.3111C141.75 17.6014 141.366 17.7466 140.951 17.7466C140.557 17.7466 140.194 17.674 139.862 17.5288C139.551 17.3837 139.188 17.3111 138.773 17.3111C138.4 17.3111 138.016 17.4044 137.622 17.5911C137.249 17.757 136.896 18.0266 136.565 18.4C136.253 18.7733 135.994 19.24 135.787 19.8C135.6 20.3392 135.507 20.9822 135.507 21.7289V29.1022C135.507 29.6415 135.33 30.0978 134.978 30.4711C134.625 30.8237 134.179 31 133.64 31ZM145.45 14.6666H152.823C153.321 14.6666 153.736 14.8325 154.068 15.1644C154.399 15.4962 154.565 15.9111 154.565 16.4088C154.565 16.8859 154.399 17.2903 154.068 17.6222C153.736 17.9333 153.321 18.0888 152.823 18.0888H145.45C144.952 18.0888 144.537 17.9229 144.205 17.5911C143.873 17.2592 143.707 16.8444 143.707 16.3466C143.707 15.8696 143.873 15.4755 144.205 15.1644C144.537 14.8325 144.952 14.6666 145.45 14.6666ZM148.779 10.7777C149.318 10.7777 149.753 10.9644 150.085 11.3377C150.438 11.6903 150.614 12.1362 150.614 12.6755V26.52C150.614 26.8104 150.666 27.0489 150.77 27.2355C150.894 27.4222 151.05 27.557 151.236 27.64C151.444 27.723 151.662 27.7644 151.89 27.7644C152.139 27.7644 152.367 27.723 152.574 27.64C152.782 27.5363 153.02 27.4844 153.29 27.4844C153.58 27.4844 153.839 27.6192 154.068 27.8889C154.316 28.1585 154.441 28.5318 154.441 29.0089C154.441 29.5896 154.119 30.0667 153.476 30.44C152.854 30.8133 152.18 31 151.454 31C151.019 31 150.531 30.9689 149.992 30.9067C149.473 30.8237 148.976 30.6474 148.499 30.3778C148.042 30.0874 147.659 29.6518 147.347 29.0711C147.036 28.4904 146.881 27.6918 146.881 26.6755V12.6755C146.881 12.1362 147.057 11.6903 147.41 11.3377C147.783 10.9644 148.239 10.7777 148.779 10.7777ZM171.62 14.0444C172.159 14.0444 172.605 14.2207 172.958 14.5733C173.31 14.9259 173.487 15.3822 173.487 15.9422V29.1022C173.487 29.6415 173.31 30.0978 172.958 30.4711C172.605 30.8237 172.159 31 171.62 31C171.081 31 170.635 30.8237 170.282 30.4711C169.929 30.0978 169.753 29.6415 169.753 29.1022V27.5778L170.438 27.8578C170.438 28.1274 170.292 28.4593 170.002 28.8533C169.712 29.2267 169.318 29.6 168.82 29.9733C168.322 30.3467 167.731 30.6681 167.046 30.9378C166.383 31.1867 165.657 31.3111 164.869 31.3111C163.438 31.3111 162.141 30.9481 160.98 30.2222C159.818 29.4756 158.895 28.4593 158.211 27.1733C157.547 25.8666 157.215 24.3733 157.215 22.6933C157.215 20.9926 157.547 19.4992 158.211 18.2133C158.895 16.9066 159.808 15.8903 160.949 15.1644C162.089 14.4177 163.355 14.0444 164.744 14.0444C165.636 14.0444 166.455 14.1792 167.202 14.4488C167.949 14.7185 168.592 15.0607 169.131 15.4755C169.691 15.8903 170.116 16.3155 170.406 16.7511C170.718 17.1659 170.873 17.5185 170.873 17.8088L169.753 18.2133V15.9422C169.753 15.4029 169.929 14.957 170.282 14.6044C170.635 14.2311 171.081 14.0444 171.62 14.0444ZM165.335 27.8889C166.248 27.8889 167.046 27.6607 167.731 27.2044C168.415 26.7481 168.944 26.1259 169.318 25.3378C169.712 24.5496 169.909 23.6681 169.909 22.6933C169.909 21.6977 169.712 20.8059 169.318 20.0177C168.944 19.2296 168.415 18.6074 167.731 18.1511C167.046 17.6948 166.248 17.4666 165.335 17.4666C164.444 17.4666 163.655 17.6948 162.971 18.1511C162.286 18.6074 161.747 19.2296 161.353 20.0177C160.98 20.8059 160.793 21.6977 160.793 22.6933C160.793 23.6681 160.98 24.5496 161.353 25.3378C161.747 26.1259 162.286 26.7481 162.971 27.2044C163.655 27.6607 164.444 27.8889 165.335 27.8889ZM191.155 7.9777C191.695 7.9777 192.141 8.154 192.493 8.50659C192.846 8.85918 193.022 9.31548 193.022 9.87548V29.1022C193.022 29.6415 192.846 30.0978 192.493 30.4711C192.141 30.8237 191.695 31 191.155 31C190.616 31 190.17 30.8237 189.818 30.4711C189.465 30.0978 189.289 29.6415 189.289 29.1022V27.5778L189.973 27.8578C189.973 28.1274 189.828 28.4593 189.538 28.8533C189.247 29.2267 188.853 29.6 188.355 29.9733C187.858 30.3467 187.267 30.6681 186.582 30.9378C185.918 31.1867 185.193 31.3111 184.404 31.3111C182.973 31.3111 181.677 30.9481 180.515 30.2222C179.354 29.4756 178.431 28.4593 177.747 27.1733C177.083 25.8666 176.751 24.3733 176.751 22.6933C176.751 20.9926 177.083 19.4992 177.747 18.2133C178.431 16.9066 179.344 15.8903 180.484 15.1644C181.625 14.4177 182.89 14.0444 184.28 14.0444C185.172 14.0444 185.991 14.1792 186.738 14.4488C187.484 14.7185 188.127 15.0607 188.667 15.4755C189.227 15.8903 189.652 16.3155 189.942 16.7511C190.253 17.1659 190.409 17.5185 190.409 17.8088L189.289 18.2133V9.87548C189.289 9.33622 189.465 8.89029 189.818 8.5377C190.17 8.16437 190.616 7.9777 191.155 7.9777ZM184.871 27.8889C185.784 27.8889 186.582 27.6607 187.267 27.2044C187.951 26.7481 188.48 26.1259 188.853 25.3378C189.247 24.5496 189.444 23.6681 189.444 22.6933C189.444 21.6977 189.247 20.8059 188.853 20.0177C188.48 19.2296 187.951 18.6074 187.267 18.1511C186.582 17.6948 185.784 17.4666 184.871 17.4666C183.979 17.4666 183.191 17.6948 182.507 18.1511C181.822 18.6074 181.283 19.2296 180.889 20.0177C180.515 20.8059 180.329 21.6977 180.329 22.6933C180.329 23.6681 180.515 24.5496 180.889 25.3378C181.283 26.1259 181.822 26.7481 182.507 27.2044C183.191 27.6607 183.979 27.8889 184.871 27.8889ZM213.211 22.6933C213.211 24.3941 212.827 25.8978 212.06 27.2044C211.313 28.4904 210.297 29.4963 209.011 30.2222C207.746 30.9481 206.325 31.3111 204.749 31.3111C203.173 31.3111 201.741 30.9481 200.456 30.2222C199.19 29.4963 198.174 28.4904 197.407 27.2044C196.66 25.8978 196.287 24.3941 196.287 22.6933C196.287 20.9926 196.66 19.4992 197.407 18.2133C198.174 16.9066 199.19 15.8903 200.456 15.1644C201.741 14.4177 203.173 14.0444 204.749 14.0444C206.325 14.0444 207.746 14.4177 209.011 15.1644C210.297 15.8903 211.313 16.9066 212.06 18.2133C212.827 19.4992 213.211 20.9926 213.211 22.6933ZM209.478 22.6933C209.478 21.6355 209.26 20.7229 208.824 19.9555C208.41 19.1674 207.839 18.5555 207.113 18.12C206.408 17.6844 205.62 17.4666 204.749 17.4666C203.878 17.4666 203.079 17.6844 202.353 18.12C201.648 18.5555 201.078 19.1674 200.642 19.9555C200.227 20.7229 200.02 21.6355 200.02 22.6933C200.02 23.7303 200.227 24.6429 200.642 25.4311C201.078 26.1985 201.648 26.8 202.353 27.2355C203.079 27.6711 203.878 27.8889 204.749 27.8889C205.62 27.8889 206.408 27.6711 207.113 27.2355C207.839 26.8 208.41 26.1985 208.824 25.4311C209.26 24.6429 209.478 23.7303 209.478 22.6933ZM218.345 31C217.806 31 217.36 30.8237 217.007 30.4711C216.655 30.0978 216.479 29.6415 216.479 29.1022V16.2533C216.479 15.714 216.655 15.2681 217.007 14.9155C217.36 14.5422 217.806 14.3555 218.345 14.3555C218.885 14.3555 219.33 14.5422 219.683 14.9155C220.036 15.2681 220.212 15.714 220.212 16.2533V19.1777L219.994 17.0933C220.222 16.5955 220.513 16.1599 220.865 15.7866C221.239 15.3925 221.653 15.0711 222.11 14.8222C222.566 14.5525 223.053 14.3555 223.572 14.2311C224.09 14.1066 224.609 14.0444 225.127 14.0444C225.75 14.0444 226.268 14.2207 226.683 14.5733C227.119 14.9259 227.336 15.3407 227.336 15.8177C227.336 16.5022 227.16 17 226.807 17.3111C226.455 17.6014 226.071 17.7466 225.656 17.7466C225.262 17.7466 224.899 17.674 224.567 17.5288C224.256 17.3837 223.893 17.3111 223.479 17.3111C223.105 17.3111 222.722 17.4044 222.327 17.5911C221.954 17.757 221.602 18.0266 221.27 18.4C220.959 18.7733 220.699 19.24 220.492 19.8C220.305 20.3392 220.212 20.9822 220.212 21.7289V29.1022C220.212 29.6415 220.036 30.0978 219.683 30.4711C219.33 30.8237 218.885 31 218.345 31Z" fill="#2C46B1"/>
</svg>
